<svg xmlns="http://www.w3.org/2000/svg" width="50" height="50" viewBox="0 0 50 50"><g><g><path fill="#fff" d="M24.964 0c13.787 0 24.964 11.192 24.964 25 0 13.807-11.177 25-24.964 25C11.177 50 0 38.807 0 25 0 11.192 11.177 0 24.964 0zm-8.05 17.512h3.862c.649 0 1.379.132 2.19.396 1.135.447 1.9 1.07 2.296 1.872v.031h-6.903c-.02 0-.512.7-1.475 2.101 0 .04.02.061.061.061h8.697c0 .325-.061.64-.183.944-.78 2.08-2.772 3.122-5.975 3.122-.68 0-1.272-.036-1.779-.107l-.03.076v2.025c0 .03 2.858 3.38 8.575 10.049h3.877c-5.869-6.872-8.803-10.359-8.803-10.46v-.03c1.297 0 2.655-.34 4.075-1.02.76-.305 1.555-.97 2.387-1.995.628-1.015.973-1.883 1.033-2.604h2.707c.02 0 .496-.7 1.429-2.101 0-.03-.025-.05-.076-.061h-4.166c-.193-.904-.557-1.67-1.095-2.3h3.908c.111-.09.598-.801 1.46-2.13v-.032H18.358c-.03 0-.512.696-1.444 2.087z"/></g></g></svg>