<svg xmlns="http://www.w3.org/2000/svg" width="1200" height="338" viewBox="0 0 1200 338"><defs><linearGradient id="s4voa" x1="600" x2="600" y1="338" y2="0" gradientUnits="userSpaceOnUse"><stop offset="0" stop-color="#383871"/><stop offset="1" stop-color="#6464bc"/></linearGradient></defs><g><g><path fill="#f6f6f6" d="M15 0h1170c8.284 0 15 6.715 15 15v308c0 8.284-6.716 15-15 15H15c-8.284 0-15-6.716-15-15V15C0 6.715 6.716 0 15 0z"/><path fill="url(#s4voa)" d="M15 0h1170c8.284 0 15 6.715 15 15v308c0 8.284-6.716 15-15 15H15c-8.284 0-15-6.716-15-15V15C0 6.715 6.716 0 15 0z"/></g></g></svg>